<svg xmlns="http://www.w3.org/2000/svg" viewBox="0 0 1000 600">
  <!-- Definitions for gradients and filters -->
  <defs>
    <!-- Background gradient -->
    <radialGradient id="bg-gradient" cx="50%" cy="100%" r="100%">
      <stop offset="0%" style="stop-color:#0a0f2d"/>
      <stop offset="100%" style="stop-color:#020617"/>
    </radialGradient>
    
    <!-- Circle gradient -->
    <radialGradient id="circle-gradient" cx="50%" cy="50%" r="50%">
      <stop offset="0%" style="stop-color:#4a9eff" stop-opacity="0.3"/>
      <stop offset="70%" style="stop-color:#304FFE" stop-opacity="0.1"/>
      <stop offset="100%" style="stop-color:#1a237e" stop-opacity="0"/>
    </radialGradient>
    
    <!-- Glow filter -->
    <filter id="tech-glow">
      <feGaussianBlur stdDeviation="4" result="blur"/>
      <feFlood flood-color="#4a9eff" result="color"/>
      <feComposite in="color" in2="blur" operator="in"/>
      <feMerge>
        <feMergeNode/>
        <feMergeNode in="SourceGraphic"/>
      </feMerge>
    </filter>
  </defs>

  <!-- Background -->
  <rect width="1000" height="600" fill="url(#bg-gradient)"/>

  <!-- Main circular element - moved up to 700 from 800 -->
  <g transform="translate(500, 700)">
    <!-- Base circle with gradient - widened to 500 from 400 -->
    <circle cx="0" cy="0" r="500" fill="url(#circle-gradient)"/>
    
    <!-- Orbital rings - adjusted proportionally -->
    <g fill="none" stroke="#4a9eff" stroke-width="1" opacity="0.3" filter="url(#tech-glow)">
      <circle cx="0" cy="0" r="480"/>
      <circle cx="0" cy="0" r="450"/>
      <circle cx="0" cy="0" r="420"/>
      <circle cx="0" cy="0" r="390"/>
    </g>

    <!-- Circuit patterns - adjusted for wider circle -->
    <g stroke="#00ff9d" stroke-width="2" fill="none" opacity="0.4" filter="url(#tech-glow)">
      <path d="M-400,-300 A500,500 0 0,1 400,-300"/>
      <path d="M-350,-250 A450,450 0 0,1 350,-250"/>
      <path d="M-300,-200 A400,400 0 0,1 300,-200"/>
    </g>

    <!-- Connection nodes - adjusted positions -->
    <g fill="#4a9eff" filter="url(#tech-glow)">
      <circle cx="-400" cy="-300" r="4"/>
      <circle cx="400" cy="-300" r="4"/>
      <circle cx="-300" cy="-200" r="4"/>
      <circle cx="300" cy="-200" r="4"/>
      <circle cx="0" cy="-450" r="4"/>
      <circle cx="-200" cy="-420" r="4"/>
      <circle cx="200" cy="-420" r="4"/>
    </g>

    <!-- Hexagonal grid pattern - adjusted scale -->
    <g stroke="#304FFE" stroke-width="1" fill="none" opacity="0.2">
      <path d="M-70,-400 L0,-365 L70,-400 L70,-470 L0,-505 L-70,-470 Z"/>
      <path d="M-200,-350 L-130,-315 L-60,-350 L-60,-420 L-130,-455 L-200,-420 Z"/>
      <path d="M60,-350 L130,-315 L200,-350 L200,-420 L130,-455 L60,-420 Z"/>
    </g>

    <!-- Rising energy lines - adjusted positions -->
    <g stroke="#00ff9d" stroke-width="1" opacity="0.3" filter="url(#tech-glow)">
      <path d="M-250,-500 L-220,-450 L-270,-400 L-220,-350"/>
      <path d="M0,-500 L30,-450 L-30,-400 L30,-350"/>
      <path d="M250,-500 L220,-450 L270,-400 L220,-350"/>
    </g>
  </g>

  <!-- Floating particles - adjusted for wider viewport -->
  <g fill="#4a9eff" filter="url(#tech-glow)">
    <circle cx="300" cy="200" r="2"/>
    <circle cx="700" cy="300" r="2"/>
    <circle cx="200" cy="250" r="2"/>
    <circle cx="800" cy="280" r="2"/>
    <circle cx="500" cy="150" r="2"/>
    <circle cx="400" cy="180" r="2"/>
    <circle cx="600" cy="220" r="2"/>
  </g>
</svg>
